<svg xmlns="http://www.w3.org/2000/svg" viewBox="0 0 32 32"><rect width="32" height="32" rx="7" fill="#180c31"/><circle cx="16" cy="16" r="14" fill="none" stroke="#c98a55" stroke-width="1.4" stroke-dasharray="2 2" transform="rotate(25 16 16)"/><g fill="#c98a55"><rect x="6" y="6" width="4" height="4" rx="0.8"/><rect x="22" y="6" width="4" height="4" rx="0.8"/><rect x="10" y="14" width="4" height="4" rx="0.8"/><rect x="18" y="14" width="4" height="4" rx="0.8"/><rect x="14" y="14" width="4" height="4" rx="0.8"/><rect x="6" y="18" width="4" height="4" rx="0.8"/><rect x="22" y="18" width="4" height="4" rx="0.8"/><rect x="10" y="18" width="4" height="4" rx="0.8"/><rect x="18" y="18" width="4" height="4" rx="0.8"/><rect x="6" y="22" width="4" height="4" rx="0.8"/><rect x="22" y="22" width="4" height="4" rx="0.8"/><rect x="10" y="22" width="4" height="4" rx="0.8"/><rect x="18" y="22" width="4" height="4" rx="0.8"/></g></svg>